<?xml version="1.0" encoding="UTF-8" standalone="no"?>
<!-- Created with Inkscape (http://www.inkscape.org/) -->

<svg
   xmlns:dc="http://purl.org/dc/elements/1.1/"
   xmlns:cc="http://creativecommons.org/ns#"
   xmlns:rdf="http://www.w3.org/1999/02/22-rdf-syntax-ns#"
   xmlns:svg="http://www.w3.org/2000/svg"
   xmlns="http://www.w3.org/2000/svg"
   xmlns:xlink="http://www.w3.org/1999/xlink"
   xmlns:sodipodi="http://sodipodi.sourceforge.net/DTD/sodipodi-0.dtd"
   xmlns:inkscape="http://www.inkscape.org/namespaces/inkscape"
   width="744.09448819"
   height="1052.3622047"
   id="svg2"
   version="1.1"
   inkscape:version="0.48.5 r10040"
   sodipodi:docname="New document 1">
  <defs
     id="defs4">
    <marker
       inkscape:stockid="Arrow2Lend"
       orient="auto"
       refY="0.0"
       refX="0.0"
       id="Arrow2Lend"
       style="overflow:visible;">
      <path
         id="path3848"
         style="fill-rule:evenodd;stroke-width:0.62500000;stroke-linejoin:round;"
         d="M 8.7185878,4.0337352 L -2.2072895,0.016013256 L 8.7185884,-4.0017078 C 6.9730900,-1.6296469 6.9831476,1.6157441 8.7185878,4.0337352 z "
         transform="scale(1.1) rotate(180) translate(1,0)" />
    </marker>
  </defs>
  <sodipodi:namedview
     id="base"
     pagecolor="#ffffff"
     bordercolor="#666666"
     borderopacity="1.0"
     inkscape:pageopacity="0.0"
     inkscape:pageshadow="2"
     inkscape:zoom="1"
     inkscape:cx="426.70234"
     inkscape:cy="793.27006"
     inkscape:document-units="px"
     inkscape:current-layer="layer1"
     showgrid="false"
     inkscape:window-width="1440"
     inkscape:window-height="852"
     inkscape:window-x="0"
     inkscape:window-y="0"
     inkscape:window-maximized="0">
    <inkscape:grid
       type="xygrid"
       id="grid4873" />
  </sodipodi:namedview>
  <metadata
     id="metadata7">
    <rdf:RDF>
      <cc:Work
         rdf:about="">
        <dc:format>image/svg+xml</dc:format>
        <dc:type
           rdf:resource="http://purl.org/dc/dcmitype/StillImage" />
        <dc:title></dc:title>
      </cc:Work>
    </rdf:RDF>
  </metadata>
  <g
     inkscape:label="Layer 1"
     inkscape:groupmode="layer"
     id="layer1">
    <path
       sodipodi:type="arc"
       style="fill:#fff400;fill-opacity:0.99115044;stroke:#000000;stroke-width:2;stroke-miterlimit:4;stroke-opacity:1;stroke-dasharray:none"
       id="path2993"
       sodipodi:cx="114.5"
       sodipodi:cy="161.36218"
       sodipodi:rx="58.5"
       sodipodi:ry="117"
       d="m 173,161.36218 a 58.5,117 0 1 1 -117,0 58.5,117 0 1 1 117,0 z"
       transform="matrix(1.0421995,0,0,1,-9.300518,4)"
       inkscape:export-filename="/Users/kristaps/checkedout/bmigrate/evolve.png"
       inkscape:export-xdpi="90"
       inkscape:export-ydpi="90" />
    <path
       sodipodi:type="arc"
       style="fill:#ff6600;fill-opacity:0.99115044;stroke:#000000;stroke-width:40;stroke-miterlimit:4;stroke-opacity:1;stroke-dasharray:none"
       id="path2985"
       sodipodi:cx="320"
       sodipodi:cy="222.86218"
       sodipodi:rx="98"
       sodipodi:ry="98.5"
       d="m 418,222.86218 a 98,98.5 0 1 1 -196,0 98,98.5 0 1 1 196,0 z"
       transform="matrix(0.18228189,0,0,0.1813566,52.169793,50.444652)"
       inkscape:export-filename="/Users/kristaps/checkedout/bmigrate/evolve.png"
       inkscape:export-xdpi="90"
       inkscape:export-ydpi="90" />
    <use
       x="0"
       y="0"
       xlink:href="#path2985"
       id="use2987"
       transform="translate(0,50)"
       width="744.09448"
       height="1052.3622"
       inkscape:export-filename="/Users/kristaps/checkedout/bmigrate/evolve.png"
       inkscape:export-xdpi="90"
       inkscape:export-ydpi="90" />
    <use
       x="0"
       y="0"
       xlink:href="#path2985"
       id="use2989"
       transform="translate(0,100)"
       width="744.09448"
       height="1052.3622"
       inkscape:export-filename="/Users/kristaps/checkedout/bmigrate/evolve.png"
       inkscape:export-xdpi="90"
       inkscape:export-ydpi="90" />
    <use
       x="0"
       y="0"
       xlink:href="#use2987"
       id="use2991"
       transform="translate(0,100)"
       width="744.09448"
       height="1052.3622"
       inkscape:export-filename="/Users/kristaps/checkedout/bmigrate/evolve.png"
       inkscape:export-xdpi="90"
       inkscape:export-ydpi="90" />
    <use
       x="0"
       y="0"
       xlink:href="#path2993"
       id="use3763"
       transform="matrix(1.0649604,0,0,1.4297773,150.87041,-20.784967)"
       width="744.09448"
       height="1052.3622"
       inkscape:export-filename="/Users/kristaps/checkedout/bmigrate/evolve.png"
       inkscape:export-xdpi="90"
       inkscape:export-ydpi="90" />
    <use
       x="0"
       y="0"
       xlink:href="#path2985"
       id="use3765"
       transform="translate(158,0)"
       width="744.09448"
       height="1052.3622"
       inkscape:export-filename="/Users/kristaps/checkedout/bmigrate/evolve.png"
       inkscape:export-xdpi="90"
       inkscape:export-ydpi="90" />
    <use
       x="0"
       y="0"
       xlink:href="#use2987"
       id="use3767"
       transform="translate(158,0)"
       width="744.09448"
       height="1052.3622"
       style="fill:#ff0010;fill-opacity:0.99115044"
       inkscape:export-filename="/Users/kristaps/checkedout/bmigrate/evolve.png"
       inkscape:export-xdpi="90"
       inkscape:export-ydpi="90" />
    <use
       x="0"
       y="0"
       xlink:href="#use2989"
       id="use3769"
       transform="translate(158,0)"
       width="744.09448"
       height="1052.3622"
       inkscape:export-filename="/Users/kristaps/checkedout/bmigrate/evolve.png"
       inkscape:export-xdpi="90"
       inkscape:export-ydpi="90" />
    <use
       x="0"
       y="0"
       xlink:href="#use2991"
       id="use3771"
       transform="translate(158,0)"
       width="744.09448"
       height="1052.3622"
       inkscape:export-filename="/Users/kristaps/checkedout/bmigrate/evolve.png"
       inkscape:export-xdpi="90"
       inkscape:export-ydpi="90" />
    <use
       x="0"
       y="0"
       xlink:href="#use3769"
       id="use3773"
       transform="translate(0,100)"
       width="744.09448"
       height="1052.3622"
       inkscape:export-filename="/Users/kristaps/checkedout/bmigrate/evolve.png"
       inkscape:export-xdpi="90"
       inkscape:export-ydpi="90" />
    <use
       x="0"
       y="0"
       xlink:href="#use3771"
       id="use3775"
       transform="translate(0,100)"
       width="744.09448"
       height="1052.3622"
       inkscape:export-filename="/Users/kristaps/checkedout/bmigrate/evolve.png"
       inkscape:export-xdpi="90"
       inkscape:export-ydpi="90" />
    <path
       style="fill:#008000;fill-opacity:0.99115044;stroke:#000000;stroke-width:2;stroke-miterlimit:4;stroke-opacity:1;stroke-dasharray:none"
       d="m 261.3,152.30461 c -3.65891,-2.40797 -6.50129,-7.43833 -6.49626,-11.49689 0.008,-6.25535 7.13075,-13.5036 13.27838,-13.51186 10.66252,-0.0143 17.28229,11.63816 11.75836,20.69771 -3.74729,6.14577 -12.61834,8.20846 -18.54048,4.31104 z"
       id="path3783"
       inkscape:connector-curvature="0"
       inkscape:export-filename="/Users/kristaps/checkedout/bmigrate/evolve.png"
       inkscape:export-xdpi="90"
       inkscape:export-ydpi="90" />
    <path
       style="fill:#008000;fill-opacity:0.99115044;stroke:#000000;stroke-width:2;stroke-miterlimit:4;stroke-opacity:1;stroke-dasharray:none"
       d="m 103.3,102.30461 c -3.658912,-2.407975 -6.501293,-7.438334 -6.496262,-11.49689 0.0078,-6.255352 7.130752,-13.503604 13.278382,-13.511864 10.66252,-0.01433 17.28229,11.638167 11.75836,20.697713 -3.74729,6.145771 -12.61834,8.208461 -18.54048,4.311041 z"
       id="path3787"
       inkscape:connector-curvature="0"
       inkscape:export-filename="/Users/kristaps/checkedout/bmigrate/evolve.png"
       inkscape:export-xdpi="90"
       inkscape:export-ydpi="90" />
    <path
       style="fill:#008000;fill-opacity:0.99115044;stroke:#000000;stroke-width:2;stroke-miterlimit:4;stroke-opacity:1;stroke-dasharray:none"
       d="m 261.3,102.30461 c -3.65891,-2.407975 -6.50129,-7.438334 -6.49626,-11.49689 0.008,-6.255352 7.13075,-13.503604 13.27838,-13.511864 10.66252,-0.01433 17.28229,11.638167 11.75836,20.697713 -3.74729,6.145771 -12.61834,8.208461 -18.54048,4.311041 z"
       id="path3789"
       inkscape:connector-curvature="0"
       inkscape:export-filename="/Users/kristaps/checkedout/bmigrate/evolve.png"
       inkscape:export-xdpi="90"
       inkscape:export-ydpi="90" />
    <path
       style="fill:#44aa00;fill-opacity:0.99115044;stroke:#000000;stroke-width:2;stroke-miterlimit:4;stroke-opacity:1;stroke-dasharray:none"
       d="m 262.5175,380.23781 c -5.62755,-1.38058 -9.47309,-3.63735 -14.99973,-8.80266 -45.42715,-42.45719 -57.17638,-192.8956 -21.70436,-277.904998 8.14763,-19.525937 20.0837,-35.20047 30.64542,-40.243763 33.83424,-16.156086 66.01462,40.734537 73.42344,129.802851 1.33333,16.0292 0.68784,64.1551 -1.04889,78.20288 -4.42993,35.83193 -11.30042,61.57863 -22.54878,84.5 -12.95045,26.38981 -28.07711,38.29483 -43.7671,34.44569 z m 14.0579,-19.12144 c 11.86634,-3.60882 17.51315,-19.83067 10.85682,-31.18884 -4.00145,-6.82796 -9.33348,-9.99665 -17.60843,-10.46422 -7.52432,-0.42517 -12.40531,1.41355 -17.22074,6.48723 -11.45649,12.07087 -4.8909,33.14789 11.2864,36.23186 4.53997,0.86548 7.02016,0.65707 12.68595,-1.06603 l 0,0 z m 0,-50 c 11.86634,-3.60882 17.51315,-19.83067 10.85682,-31.18884 -4.00145,-6.82796 -9.33348,-9.99665 -17.60843,-10.46422 -7.52432,-0.42517 -12.40531,1.41355 -17.22074,6.48723 -11.45649,12.07087 -4.8909,33.14789 11.2864,36.23186 4.53997,0.86548 7.02016,0.65707 12.68595,-1.06603 z m 0,-50 c 11.86634,-3.60882 17.51315,-19.83067 10.85682,-31.18884 -4.00145,-6.82796 -9.33348,-9.99665 -17.60843,-10.46422 -7.52432,-0.42517 -12.40531,1.41355 -17.22074,6.48723 -11.45649,12.07087 -4.8909,33.14789 11.2864,36.23186 4.53997,0.86548 7.02016,0.65707 12.68595,-1.06603 z m 0,-50 c 11.86634,-3.60882 17.51315,-19.83067 10.85682,-31.18884 -4.00145,-6.82796 -9.33348,-9.99665 -17.60843,-10.46422 -7.52432,-0.42517 -12.40531,1.41355 -17.22074,6.48723 -11.45649,12.07087 -4.8909,33.14789 11.2864,36.23186 4.53997,0.86548 7.02016,0.65707 12.68595,-1.06603 z m 0,-50 c 11.86634,-3.60882 17.51315,-19.83067 10.85682,-31.18884 -4.00145,-6.82796 -9.33348,-9.99665 -17.60843,-10.46423 -7.52432,-0.42516 -12.40531,1.41356 -17.22074,6.48724 -11.45649,12.07087 -4.8909,33.14789 11.2864,36.23186 4.53997,0.86548 7.02016,0.65707 12.68595,-1.06603 l 0,0 z m 0,-50 c 11.86634,-3.60882 17.51315,-19.830671 10.85682,-31.188841 -4.00145,-6.82796 -9.33348,-9.996648 -17.60843,-10.464225 -7.52432,-0.425162 -12.40531,1.413555 -17.22074,6.487231 -11.45649,12.070873 -4.8909,33.147895 11.2864,36.231865 4.53997,0.86548 7.02016,0.65707 12.68595,-1.06603 l 0,0 z"
       id="path3791"
       inkscape:connector-curvature="0"
       inkscape:export-filename="/Users/kristaps/checkedout/bmigrate/evolve.png"
       inkscape:export-xdpi="90"
       inkscape:export-ydpi="90" />
    <path
       style="fill:#ff0000;fill-opacity:0.99115044;stroke:#000000;stroke-width:2;stroke-miterlimit:4;stroke-opacity:1;stroke-dasharray:none"
       d="m 102.2,98.892118 c -2.697527,-2.697527 -3.4,-4.201128 -3.4,-7.277494 0,-6.856059 5.18987,-12.238299 11.85,-12.289236 11.11281,-0.08499 15.70452,15.663663 6.20332,21.276162 -1.57405,0.92981 -4.74997,1.69057 -7.05761,1.69057 -3.43826,0 -4.80951,-0.6138 -7.59571,-3.400002 z"
       id="path3793"
       inkscape:connector-curvature="0"
       inkscape:export-filename="/Users/kristaps/checkedout/bmigrate/evolve.png"
       inkscape:export-xdpi="90"
       inkscape:export-ydpi="90" />
    <path
       style="fill:#ff0000;fill-opacity:0.99115044;stroke:#000000;stroke-width:2;stroke-miterlimit:4;stroke-opacity:1;stroke-dasharray:none"
       d="m 260.2,98.892118 c -2.69753,-2.697527 -3.4,-4.201128 -3.4,-7.277494 0,-6.856059 5.18987,-12.238299 11.85,-12.289236 11.11281,-0.08499 15.70452,15.663663 6.20332,21.276162 -1.57405,0.92981 -4.74997,1.69057 -7.05761,1.69057 -3.43826,0 -4.80951,-0.6138 -7.59571,-3.400002 z"
       id="path3795"
       inkscape:connector-curvature="0"
       inkscape:export-filename="/Users/kristaps/checkedout/bmigrate/evolve.png"
       inkscape:export-xdpi="90"
       inkscape:export-ydpi="90" />
    <path
       style="fill:#ff0000;fill-opacity:0.99115044;stroke:#000000;stroke-width:2;stroke-miterlimit:4;stroke-opacity:1;stroke-dasharray:none"
       d="m 260.2,148.89212 c -2.69753,-2.69753 -3.4,-4.20113 -3.4,-7.2775 0,-6.85605 5.18987,-12.23829 11.85,-12.28923 11.11281,-0.085 15.70452,15.66366 6.20332,21.27616 -1.57405,0.92981 -4.74997,1.69057 -7.05761,1.69057 -3.43826,0 -4.80951,-0.6138 -7.59571,-3.4 z"
       id="path3797"
       inkscape:connector-curvature="0"
       inkscape:export-filename="/Users/kristaps/checkedout/bmigrate/evolve.png"
       inkscape:export-xdpi="90"
       inkscape:export-ydpi="90" />
    <path
       style="fill:#ff0000;fill-opacity:0.99115044;stroke:#000000;stroke-width:2;stroke-miterlimit:4;stroke-opacity:1;stroke-dasharray:none"
       d=""
       id="path3803"
       inkscape:connector-curvature="0" />
    <use
       x="0"
       y="0"
       xlink:href="#path2993"
       id="use3807"
       transform="translate(620,0)"
       width="744.09448"
       height="1052.3622"
       inkscape:export-filename="/Users/kristaps/checkedout/bmigrate/evolve.png"
       inkscape:export-xdpi="90"
       inkscape:export-ydpi="90" />
    <use
       x="0"
       y="0"
       xlink:href="#path2985"
       id="use3809"
       transform="translate(620,0)"
       width="744.09448"
       height="1052.3622"
       inkscape:export-filename="/Users/kristaps/checkedout/bmigrate/evolve.png"
       inkscape:export-xdpi="90"
       inkscape:export-ydpi="90" />
    <use
       x="0"
       y="0"
       xlink:href="#use2987"
       id="use3811"
       transform="translate(620,0)"
       width="744.09448"
       height="1052.3622"
       inkscape:export-filename="/Users/kristaps/checkedout/bmigrate/evolve.png"
       inkscape:export-xdpi="90"
       inkscape:export-ydpi="90" />
    <use
       x="0"
       y="0"
       xlink:href="#use2989"
       id="use3813"
       transform="translate(620,0)"
       width="744.09448"
       height="1052.3622"
       inkscape:export-filename="/Users/kristaps/checkedout/bmigrate/evolve.png"
       inkscape:export-xdpi="90"
       inkscape:export-ydpi="90" />
    <use
       x="0"
       y="0"
       xlink:href="#use2991"
       id="use3815"
       transform="translate(620,0)"
       width="744.09448"
       height="1052.3622"
       inkscape:export-filename="/Users/kristaps/checkedout/bmigrate/evolve.png"
       inkscape:export-xdpi="90"
       inkscape:export-ydpi="90" />
    <path
       style="fill:none;stroke:#000000;stroke-width:1px;stroke-linecap:butt;stroke-linejoin:miter;stroke-opacity:1;marker-end:url(#Arrow2Lend)"
       d="m 135,91.362183 110,0"
       id="path3821"
       inkscape:connector-curvature="0"
       inkscape:export-filename="/Users/kristaps/checkedout/bmigrate/evolve.png"
       inkscape:export-xdpi="90"
       inkscape:export-ydpi="90" />
    <path
       style="fill:none;stroke:#000000;stroke-width:1px;stroke-linecap:butt;stroke-linejoin:miter;stroke-opacity:1;marker-end:url(#Arrow2Lend)"
       d="M 135,91.362183 243,130.36218"
       id="path4273"
       inkscape:connector-curvature="0"
       inkscape:export-filename="/Users/kristaps/checkedout/bmigrate/evolve.png"
       inkscape:export-xdpi="90"
       inkscape:export-ydpi="90" />
    <path
       style="fill:none;stroke:#000000;stroke-width:1px;stroke-linecap:butt;stroke-linejoin:miter;stroke-opacity:1;marker-end:url(#Arrow2Lend)"
       d="m 136,140.36218 107,40"
       id="path4459"
       inkscape:connector-curvature="0"
       inkscape:export-filename="/Users/kristaps/checkedout/bmigrate/evolve.png"
       inkscape:export-xdpi="90"
       inkscape:export-ydpi="90" />
    <use
       x="0"
       y="0"
       xlink:href="#path4459"
       id="use4643"
       transform="translate(0,52)"
       width="744.09448"
       height="1052.3622"
       inkscape:export-filename="/Users/kristaps/checkedout/bmigrate/evolve.png"
       inkscape:export-xdpi="90"
       inkscape:export-ydpi="90" />
    <use
       x="0"
       y="0"
       xlink:href="#use4643"
       id="use4645"
       transform="translate(0,50)"
       width="744.09448"
       height="1052.3622"
       inkscape:export-filename="/Users/kristaps/checkedout/bmigrate/evolve.png"
       inkscape:export-xdpi="90"
       inkscape:export-ydpi="90" />
    <path
       style="fill:none;stroke:#000000;stroke-width:1px;stroke-linecap:butt;stroke-linejoin:miter;stroke-opacity:1;marker-end:url(#Arrow2Lend)"
       d="m 136,243.36218 108,81"
       id="path4647"
       inkscape:connector-curvature="0"
       inkscape:export-filename="/Users/kristaps/checkedout/bmigrate/evolve.png"
       inkscape:export-xdpi="90"
       inkscape:export-ydpi="90" />
    <use
       x="0"
       y="0"
       xlink:href="#path2993"
       id="use4831"
       transform="translate(312,0)"
       width="744.09448"
       height="1052.3622"
       inkscape:export-filename="/Users/kristaps/checkedout/bmigrate/evolve.png"
       inkscape:export-xdpi="90"
       inkscape:export-ydpi="90" />
    <use
       x="0"
       y="0"
       xlink:href="#path2985"
       id="use4833"
       transform="translate(312,0)"
       width="744.09448"
       height="1052.3622"
       inkscape:export-filename="/Users/kristaps/checkedout/bmigrate/evolve.png"
       inkscape:export-xdpi="90"
       inkscape:export-ydpi="90" />
    <use
       x="0"
       y="0"
       xlink:href="#use2987"
       id="use4835"
       transform="translate(312,0)"
       width="744.09448"
       height="1052.3622"
       inkscape:export-filename="/Users/kristaps/checkedout/bmigrate/evolve.png"
       inkscape:export-xdpi="90"
       inkscape:export-ydpi="90" />
    <use
       x="0"
       y="0"
       xlink:href="#use2989"
       id="use4837"
       transform="translate(312,0)"
       width="744.09448"
       height="1052.3622"
       inkscape:export-filename="/Users/kristaps/checkedout/bmigrate/evolve.png"
       inkscape:export-xdpi="90"
       inkscape:export-ydpi="90" />
    <use
       x="0"
       y="0"
       xlink:href="#use2991"
       id="use4839"
       transform="translate(312,0)"
       width="744.09448"
       height="1052.3622"
       inkscape:export-filename="/Users/kristaps/checkedout/bmigrate/evolve.png"
       inkscape:export-xdpi="90"
       inkscape:export-ydpi="90" />
    <path
       style="fill:#ff00ff;fill-opacity:0.99115043999999997;stroke:#000000;stroke-width:2;stroke-miterlimit:4;stroke-opacity:1;stroke-dasharray:none"
       d="m 418.59267,111.30358 c -20.61214,-4.65065 -22.71168,-33.506023 -2.91334,-40.040062 16.87853,-5.570418 32.70218,11.434839 25.86561,27.797071 -3.69279,8.838081 -13.90358,14.284621 -22.95227,12.242991 z m 11.25914,-8.00606 c 9.53804,-5.815415 9.53804,-19.195389 0,-25.010804 -6.57191,-4.006942 -15.49664,-1.64508 -19.82395,5.246262 -3.04337,4.846623 -2.27247,12.740697 1.64891,16.885172 1.60374,1.69497 3.8159,3.45649 4.9159,3.91448 3.61976,1.50711 9.89276,1.01739 13.25914,-1.03511 l 0,0 z"
       id="path4845"
       inkscape:connector-curvature="0"
       inkscape:export-filename="/Users/kristaps/checkedout/bmigrate/evolve.png"
       inkscape:export-xdpi="90"
       inkscape:export-ydpi="90" />
    <path
       style="fill:#ff0000;fill-opacity:0.99115043999999997;stroke:#000000;stroke-width:2;stroke-miterlimit:4;stroke-opacity:1;stroke-dasharray:none"
       d="m 414.97102,101.00616 c -3.55382,-3.001284 -4.88507,-5.859633 -4.84292,-10.398301 0.0662,-7.127764 5.23593,-12.29703 12.31027,-12.309151 9.81277,-0.01681 15.96925,10.573063 11.01875,18.953577 -3.62184,6.131285 -13.33539,8.103765 -18.4861,3.753875 l 0,0 z"
       id="path4847"
       inkscape:connector-curvature="0"
       inkscape:export-filename="/Users/kristaps/checkedout/bmigrate/evolve.png"
       inkscape:export-xdpi="90"
       inkscape:export-ydpi="90" />
    <path
       style="fill:#ff00ff;fill-opacity:0.99115044;stroke:#000000;stroke-width:2;stroke-miterlimit:4;stroke-opacity:1;stroke-dasharray:none"
       d="m 726.59267,111.30358 c -20.61214,-4.65065 -22.71168,-33.506023 -2.91334,-40.040062 16.87853,-5.570418 32.70218,11.434839 25.86561,27.797071 -3.69279,8.838081 -13.90358,14.284621 -22.95227,12.242991 z m 11.25914,-8.00606 c 9.53804,-5.815415 9.53804,-19.195389 0,-25.010804 -6.57191,-4.006942 -15.49664,-1.64508 -19.82395,5.246262 -3.04337,4.846623 -2.27247,12.740697 1.64891,16.885172 1.60374,1.69497 3.8159,3.45649 4.9159,3.91448 3.61976,1.50711 9.89276,1.01739 13.25914,-1.03511 l 0,0 z"
       id="path4849"
       inkscape:connector-curvature="0"
       inkscape:export-filename="/Users/kristaps/checkedout/bmigrate/evolve.png"
       inkscape:export-xdpi="90"
       inkscape:export-ydpi="90" />
    <text
       xml:space="preserve"
       style="font-size:40px;font-style:normal;font-weight:normal;line-height:125%;letter-spacing:0px;word-spacing:0px;fill:#000000;fill-opacity:1;stroke:none;font-family:Sans"
       x="99"
       y="35.362183"
       id="text4855"
       sodipodi:linespacing="125%"
       inkscape:export-filename="/Users/kristaps/checkedout/bmigrate/evolve.png"
       inkscape:export-xdpi="90"
       inkscape:export-ydpi="90"><tspan
         sodipodi:role="line"
         id="tspan4857"
         x="99"
         y="35.362183"
         style="font-size:40px;font-style:italic;font-variant:normal;font-weight:bold;font-stretch:normal;text-align:start;line-height:125%;writing-mode:lr-tb;text-anchor:start;font-family:Bell MT;-inkscape-font-specification:Bell MT Bold Italic">1</tspan></text>
    <text
       xml:space="preserve"
       style="font-size:40px;font-style:normal;font-weight:normal;line-height:125%;letter-spacing:0px;word-spacing:0px;fill:#000000;fill-opacity:1;stroke:none;font-family:Sans"
       x="245"
       y="13.362183"
       id="text4859"
       sodipodi:linespacing="125%"><tspan
         sodipodi:role="line"
         id="tspan4861"
         x="245"
         y="13.362183" /></text>
    <text
       xml:space="preserve"
       style="font-size:40px;font-style:italic;font-variant:normal;font-weight:bold;font-stretch:normal;line-height:125%;letter-spacing:0px;word-spacing:0px;fill:#000000;fill-opacity:1;stroke:none;font-family:Bell MT;-inkscape-font-specification:Bell MT Bold Italic"
       x="257"
       y="36.362183"
       id="text4869"
       sodipodi:linespacing="125%"
       inkscape:export-filename="/Users/kristaps/checkedout/bmigrate/evolve.png"
       inkscape:export-xdpi="90"
       inkscape:export-ydpi="90"><tspan
         sodipodi:role="line"
         id="tspan4871"
         x="257"
         y="36.362183">2</tspan></text>
    <text
       xml:space="preserve"
       style="font-size:40px;font-style:normal;font-weight:normal;line-height:125%;letter-spacing:0px;word-spacing:0px;fill:#000000;fill-opacity:1;stroke:none;font-family:Sans"
       x="413"
       y="36.362183"
       id="text4875"
       sodipodi:linespacing="125%"
       inkscape:export-filename="/Users/kristaps/checkedout/bmigrate/evolve.png"
       inkscape:export-xdpi="90"
       inkscape:export-ydpi="90"><tspan
         sodipodi:role="line"
         id="tspan4877"
         x="413"
         y="36.362183"
         style="font-style:italic;font-variant:normal;font-weight:bold;font-stretch:normal;font-family:Bell MT;-inkscape-font-specification:Bell MT Bold Italic">3</tspan></text>
    <text
       xml:space="preserve"
       style="font-size:40px;font-style:normal;font-weight:normal;line-height:125%;letter-spacing:0px;word-spacing:0px;fill:#000000;fill-opacity:1;stroke:none;font-family:Sans"
       x="716"
       y="36.362183"
       id="text4879"
       sodipodi:linespacing="125%"
       inkscape:export-filename="/Users/kristaps/checkedout/bmigrate/evolve.png"
       inkscape:export-xdpi="90"
       inkscape:export-ydpi="90"><tspan
         sodipodi:role="line"
         id="tspan4881"
         x="716"
         y="36.362183"
         style="font-style:italic;font-variant:normal;font-weight:bold;font-stretch:normal;font-family:Bell MT;-inkscape-font-specification:Bell MT Bold Italic">5</tspan></text>
    <use
       x="0"
       y="0"
       xlink:href="#use3763"
       id="use4883"
       transform="translate(308,0)"
       width="744.09448"
       height="1052.3622"
       inkscape:export-filename="/Users/kristaps/checkedout/bmigrate/evolve.png"
       inkscape:export-xdpi="90"
       inkscape:export-ydpi="90" />
    <use
       x="0"
       y="0"
       xlink:href="#use3765"
       id="use4885"
       transform="translate(308,0)"
       width="744.09448"
       height="1052.3622"
       inkscape:export-filename="/Users/kristaps/checkedout/bmigrate/evolve.png"
       inkscape:export-xdpi="90"
       inkscape:export-ydpi="90" />
    <use
       x="0"
       y="0"
       xlink:href="#use3767"
       id="use4887"
       transform="translate(308,0)"
       width="744.09448"
       height="1052.3622"
       inkscape:export-filename="/Users/kristaps/checkedout/bmigrate/evolve.png"
       inkscape:export-xdpi="90"
       inkscape:export-ydpi="90" />
    <use
       x="0"
       y="0"
       xlink:href="#use3769"
       id="use4889"
       transform="translate(308,0)"
       width="744.09448"
       height="1052.3622"
       inkscape:export-filename="/Users/kristaps/checkedout/bmigrate/evolve.png"
       inkscape:export-xdpi="90"
       inkscape:export-ydpi="90" />
    <use
       x="0"
       y="0"
       xlink:href="#use3771"
       id="use4891"
       transform="translate(308,0)"
       width="744.09448"
       height="1052.3622"
       inkscape:export-filename="/Users/kristaps/checkedout/bmigrate/evolve.png"
       inkscape:export-xdpi="90"
       inkscape:export-ydpi="90" />
    <use
       x="0"
       y="0"
       xlink:href="#use3773"
       id="use4893"
       transform="translate(308,0)"
       width="744.09448"
       height="1052.3622"
       inkscape:export-filename="/Users/kristaps/checkedout/bmigrate/evolve.png"
       inkscape:export-xdpi="90"
       inkscape:export-ydpi="90" />
    <use
       x="0"
       y="0"
       xlink:href="#use3775"
       id="use4895"
       transform="translate(308,0)"
       width="744.09448"
       height="1052.3622"
       inkscape:export-filename="/Users/kristaps/checkedout/bmigrate/evolve.png"
       inkscape:export-xdpi="90"
       inkscape:export-ydpi="90" />
    <use
       x="0"
       y="0"
       xlink:href="#path3783"
       id="use4897"
       transform="translate(308,0)"
       width="744.09448"
       height="1052.3622"
       inkscape:export-filename="/Users/kristaps/checkedout/bmigrate/evolve.png"
       inkscape:export-xdpi="90"
       inkscape:export-ydpi="90" />
    <use
       x="0"
       y="0"
       xlink:href="#path3789"
       id="use4899"
       transform="translate(308,0)"
       width="744.09448"
       height="1052.3622"
       inkscape:export-filename="/Users/kristaps/checkedout/bmigrate/evolve.png"
       inkscape:export-xdpi="90"
       inkscape:export-ydpi="90" />
    <use
       x="0"
       y="0"
       xlink:href="#path3791"
       id="use4901"
       transform="translate(308,0)"
       width="744.09448"
       height="1052.3622"
       inkscape:export-filename="/Users/kristaps/checkedout/bmigrate/evolve.png"
       inkscape:export-xdpi="90"
       inkscape:export-ydpi="90" />
    <use
       x="0"
       y="0"
       xlink:href="#path3795"
       id="use4903"
       transform="translate(308,0)"
       width="744.09448"
       height="1052.3622"
       inkscape:export-filename="/Users/kristaps/checkedout/bmigrate/evolve.png"
       inkscape:export-xdpi="90"
       inkscape:export-ydpi="90" />
    <use
       x="0"
       y="0"
       xlink:href="#path3797"
       id="use4905"
       transform="translate(308,0)"
       width="744.09448"
       height="1052.3622"
       inkscape:export-filename="/Users/kristaps/checkedout/bmigrate/evolve.png"
       inkscape:export-xdpi="90"
       inkscape:export-ydpi="90" />
    <path
       style="fill:none;stroke:#000000;stroke-width:1px;stroke-linecap:butt;stroke-linejoin:miter;stroke-opacity:1;marker-end:url(#Arrow2Lend)"
       d="m 605,189.36218 102,-85"
       id="path4909"
       inkscape:connector-curvature="0"
       inkscape:export-filename="/Users/kristaps/checkedout/bmigrate/evolve.png"
       inkscape:export-xdpi="90"
       inkscape:export-ydpi="90" />
    <text
       xml:space="preserve"
       style="font-size:40px;font-style:normal;font-weight:normal;line-height:125%;letter-spacing:0px;word-spacing:0px;fill:#000000;fill-opacity:1;stroke:none;font-family:Sans"
       x="562"
       y="37.362183"
       id="text5093"
       sodipodi:linespacing="125%"
       inkscape:export-filename="/Users/kristaps/checkedout/bmigrate/evolve.png"
       inkscape:export-xdpi="90"
       inkscape:export-ydpi="90"><tspan
         sodipodi:role="line"
         id="tspan5095"
         x="562"
         y="37.362183"
         style="font-style:italic;font-variant:normal;font-weight:bold;font-stretch:normal;font-family:Bell MT;-inkscape-font-specification:Bell MT Bold Italic">4</tspan></text>
  </g>
</svg>
